<?xml version="1.0" standalone="no"?>
<!DOCTYPE svg PUBLIC "-//W3C//DTD SVG 20010904//EN"
 "http://www.w3.org/TR/2001/REC-SVG-20010904/DTD/svg10.dtd">
<svg version="1.0" xmlns="http://www.w3.org/2000/svg"
 width="500.000000pt" height="200.000000pt" viewBox="0 0 500.000000 200.000000"
 preserveAspectRatio="xMidYMid meet">
<metadata>
Created by potrace 1.16, written by Peter Selinger 2001-2019
</metadata>
<g transform="translate(0.000000,200.000000) scale(0.100000,-0.100000)"
fill="#000000" stroke="none">
<path d="M3245 1706 c-42 -18 -82 -68 -97 -119 -6 -23 -11 -79 -11 -125 0 -71
4 -91 29 -139 38 -74 81 -98 180 -98 60 0 77 4 111 27 54 36 83 97 90 191 10
126 -36 231 -114 263 -41 18 -148 17 -188 0z m166 -92 c54 -48 52 -233 -3
-284 -29 -27 -97 -27 -131 0 -65 51 -57 257 12 296 32 18 96 12 122 -12z"/>
<path d="M2030 1470 l0 -240 155 0 155 0 0 45 0 45 -110 0 -110 0 0 60 0 60
90 0 90 0 0 40 0 39 -87 3 -88 3 -3 53 -3 52 110 0 111 0 0 40 0 40 -155 0
-155 0 0 -240z"/>
<path d="M2430 1470 l0 -240 150 0 150 0 0 45 0 45 -100 0 -100 0 0 195 0 195
-50 0 -50 0 0 -240z"/>
<path d="M2790 1470 l0 -240 150 0 150 0 0 45 0 45 -100 0 -100 0 0 195 0 195
-50 0 -50 0 0 -240z"/>
<path d="M1212 1575 c-110 -24 -228 -88 -308 -169 -117 -117 -164 -243 -144
-388 17 -125 109 -274 210 -341 l24 -17 -27 -82 c-14 -45 -25 -84 -23 -86 3
-2 47 19 99 47 l94 51 64 -14 c35 -8 93 -17 128 -21 63 -6 64 -6 57 17 -29
100 -11 238 41 328 87 150 292 259 485 260 l57 0 -14 46 c-51 170 -234 322
-442 368 -86 19 -215 19 -301 1z m3 -261 c27 -29 33 -78 12 -105 -53 -69 -157
-38 -157 46 0 78 93 115 145 59z m414 0 c40 -33 43 -83 6 -119 -53 -54 -145
-16 -145 60 0 76 79 110 139 59z"/>
<path d="M1755 1102 c-183 -54 -324 -200 -344 -354 -16 -129 26 -247 120 -339
127 -125 336 -179 523 -135 l58 14 75 -40 c41 -22 77 -37 80 -34 3 3 -4 32
-15 65 l-20 60 67 68 c37 38 77 90 90 117 104 224 -10 464 -266 563 -91 35
-275 42 -368 15z m52 -224 c31 -29 30 -71 -3 -97 -15 -12 -35 -21 -46 -21 -25
0 -68 44 -68 70 0 28 43 70 71 70 13 0 33 -10 46 -22z m338 -3 c14 -13 25 -33
25 -45 0 -27 -43 -70 -70 -70 -28 0 -70 43 -70 71 0 30 38 69 67 69 13 0 35
-11 48 -25z"/>
<path d="M2641 1030 c-78 -19 -121 -82 -129 -190 -8 -115 25 -202 89 -236 39
-19 135 -20 182 -1 56 24 88 107 53 136 -22 18 -69 9 -81 -15 -33 -66 -79 -72
-107 -14 -22 44 -24 157 -3 206 13 33 17 35 52 32 35 -3 39 -6 51 -46 20 -61
74 -71 106 -19 16 25 -22 107 -60 129 -37 22 -107 30 -153 18z"/>
<path d="M3493 1033 c-34 -7 -71 -50 -93 -111 -26 -70 -43 -265 -26 -302 24
-54 96 -27 96 37 l0 33 55 0 54 0 7 -37 c9 -50 20 -63 55 -63 60 0 70 45 48
220 -11 95 -45 181 -81 203 -26 17 -82 27 -115 20z m65 -115 c7 -15 15 -57 19
-93 l6 -65 -58 0 -58 0 7 72 c10 110 52 152 84 86z"/>
<path d="M2946 1014 c-13 -13 -16 -46 -16 -203 0 -169 2 -190 18 -204 24 -22
65 -21 85 1 12 13 17 37 17 85 l0 67 55 0 55 0 0 -69 c0 -79 13 -101 60 -101
56 0 62 25 58 235 -3 201 -4 205 -60 205 -45 0 -58 -23 -58 -106 l0 -74 -55 0
-55 0 0 74 c0 84 -13 106 -60 106 -16 0 -36 -7 -44 -16z"/>
<path d="M3773 1023 c-7 -2 -13 -18 -13 -34 0 -30 9 -35 75 -41 l30 -3 0 -161
c0 -176 5 -194 56 -194 54 0 59 15 59 196 l0 164 39 0 c57 0 71 8 71 40 0 16
-7 30 -16 34 -19 7 -283 7 -301 -1z"/>
</g>
</svg>
